<svg xmlns="http://www.w3.org/2000/svg" width="24" height="24" fill="none" viewBox="0 0 24 24">
    <path fill="url(#a)" fill-rule="evenodd" d="M5.41 7.5l.82-2h3.04l.82 2-.82 2H6.23l-.82-2zm-.524-4h5.728l1.636 4-1.636 4H4.886l-1.636-4 1.636-4zm9.843 6l-.818 2 .818 2h3.042l.818-2-.818-2h-3.042zm4.385-2h-5.728l-1.636 4 1.636 4h5.728l1.636-4-1.636-4zm-12.885 7l-.818 2 .818 2h3.042l.818-2-.818-2H6.229zm4.385-2H4.886l-1.636 4 1.636 4h5.728l1.636-4-1.636-4z" clip-rule="evenodd"/>
    <defs>
        <linearGradient id="a" x1="12" x2="12" y1="3.5" y2="20.5" gradientUnits="userSpaceOnUse">
            <stop stop-color="#08F"/>
            <stop offset="1" stop-color="#0060B5"/>
        </linearGradient>
    </defs>
</svg>
