<svg xmlns="http://www.w3.org/2000/svg" width="24" height="24" fill="none" viewBox="0 0 24 24">
    <mask id="b" fill="#fff">
        <path fill-rule="evenodd" d="M6 18.973a4.5 4.5 0 1 1 1.077-8.936 6.002 6.002 0 0 1 11.922 1.089A4.002 4.002 0 0 1 18 19H6v-.027z" clip-rule="evenodd"/>
    </mask>
    <path fill="url(#a)" d="M6 18.973h2V17.18l-1.78-.196L6 18.973zm1.077-8.936l-.254 1.983 1.92.246.308-1.91-1.974-.32zm11.922 1.089l-2-.041-.032 1.583 1.534.395.498-1.937zM6 19H4v2h2v-2zm.22-2.015A2.5 2.5 0 0 1 4 14.5H0a6.5 6.5 0 0 0 5.78 6.46l.44-3.975zM4 14.5A2.5 2.5 0 0 1 6.5 12V8A6.5 6.5 0 0 0 0 14.5h4zM6.5 12c.11 0 .218.007.323.02l.508-3.967A6.542 6.542 0 0 0 6.5 8v4zm2.551-1.645A4.002 4.002 0 0 1 13 7V3a8.002 8.002 0 0 0-7.898 6.718l3.95.637zM13 7a4 4 0 0 1 4 4h4a8 8 0 0 0-8-8v4zm4 4v.085l3.998.082L21 11h-4zm1.5 2.063A2.002 2.002 0 0 1 20 15h4c0-2.8-1.915-5.146-4.503-5.811l-.996 3.874zM20 15a2 2 0 0 1-2 2v4a6 6 0 0 0 6-6h-4zm-2 2H6.5v4H18v-4zM6.5 17H6v4h.5v-4zM8 19v-.027H4V19h4z" mask="url(#b)"/>
    <defs>
        <linearGradient id="a" x1="12" x2="12" y1="5" y2="19" gradientUnits="userSpaceOnUse">
            <stop stop-color="#08F"/>
            <stop offset="1" stop-color="#0060B5"/>
        </linearGradient>
    </defs>
</svg>
