<svg xmlns="http://www.w3.org/2000/svg" width="24" height="24" fill="none" viewBox="0 0 24 24">
    <mask id="b" fill="#fff">
        <path fill-rule="evenodd" d="M15 10a5 5 0 1 1-10 0 5 5 0 0 1 10 0zm-1.088 5.806a7 7 0 1 1 1.03-.849l.644.214 5.657 5.657-1.415 1.415-5.656-5.657-.26-.78z" clip-rule="evenodd"/>
    </mask>
    <path fill="url(#a)" d="M13.912 15.806l.948-.316-.416-1.25-1.092.737.56.829zm1.03-.849l-.706-.708-1.147 1.144 1.537.513.316-.949zm.644.214l.707-.707-.167-.167-.224-.074-.316.948zm5.657 5.657l.707.707.707-.707-.707-.707-.707.707zm-1.415 1.415l-.707.707.707.707.708-.707-.708-.707zm-5.656-5.657l-.95.316.076.224.166.167.708-.707zM10 16a6 6 0 0 0 6-6h-2a4 4 0 0 1-4 4v2zm-6-6a6 6 0 0 0 6 6v-2a4 4 0 0 1-4-4H4zm6-6a6 6 0 0 0-6 6h2a4 4 0 0 1 4-4V4zm6 6a6 6 0 0 0-6-6v2a4 4 0 0 1 4 4h2zm-6 8a7.967 7.967 0 0 0 4.471-1.365l-1.119-1.658A5.968 5.968 0 0 1 10 16v2zm-8-8a8 8 0 0 0 8 8v-2a6 6 0 0 1-6-6H2zm8-8a8 8 0 0 0-8 8h2a6 6 0 0 1 6-6V2zm8 8a8 8 0 0 0-8-8v2a6 6 0 0 1 6 6h2zm-2.351 5.665A7.978 7.978 0 0 0 18 10h-2c0 1.66-.673 3.162-1.764 4.249l1.412 1.416zm.253-1.442l-.643-.215-.633 1.898.644.214.632-1.897zm6.048 5.898l-5.657-5.657-1.414 1.415 5.657 5.656 1.414-1.414zm-1.414 2.829l1.414-1.415-1.414-1.414-1.415 1.415 1.415 1.414zm-7.072-5.657l5.657 5.657 1.415-1.415-5.657-5.656-1.415 1.414zm-.501-1.17l.26.779 1.897-.633-.26-.78-1.897.633z" mask="url(#b)"/>
    <defs>
        <linearGradient id="a" x1="12.121" x2="12.121" y1="3" y2="22.243" gradientUnits="userSpaceOnUse">
            <stop stop-color="#08F"/>
            <stop offset="1" stop-color="#0060B5"/>
        </linearGradient>
    </defs>
</svg>
