<svg xmlns="http://www.w3.org/2000/svg" width="132" height="132" fill="none" viewBox="0 0 132 132">
    <path fill="#fff" d="M0 0h132v132H0z"/>
    <circle cx="66" cy="75" r="41" stroke="#CCE7FF" stroke-width="6"/>
    <path stroke="#CCE7FF" stroke-width="6" d="M86 75c0 11.766-2.5 22.27-6.395 29.723C75.634 112.319 70.673 116 66 116s-9.634-3.681-13.605-11.277C48.5 97.27 46 86.766 46 75c0-11.767 2.5-22.27 6.395-29.723C56.366 37.681 61.327 34 66 34s9.634 3.68 13.605 11.277C83.5 52.73 86 63.233 86 75z"/>
    <path stroke="#CCE7FF" stroke-width="6" d="M66 95c-11.767 0-22.27-2.5-29.723-6.395C28.681 84.634 25 79.673 25 75s3.68-9.634 11.277-13.605C43.73 57.5 54.233 55 66 55c11.766 0 22.27 2.5 29.723 6.395C103.319 65.366 107 70.327 107 75s-3.681 9.634-11.277 13.605C88.27 92.5 77.766 95 66 95z"/>
    <path fill="#007AE6" d="M46.321 52.987C31.12 35.98 43.19 9 66 9s34.881 26.98 19.679 43.987L68.09 72.662a2.804 2.804 0 0 1-4.18 0L46.32 52.987z"/>
    <circle cx="66" cy="35" r="16" fill="#fff"/>
</svg>
