<svg xmlns="http://www.w3.org/2000/svg" width="24" height="24" fill="none" viewBox="0 0 24 24">
    <path fill="url(#a)" fill-rule="evenodd" d="M4.416 17.615l-.295 2.063 2.063-.295.412-.059 2.475-.353 1.414-1.415 6.364-6.364 1.415-1.414 2.12-2.121L21.8 6.243l-1.414-1.415-1.414-1.414L17.556 2l-1.414 1.414-2.121 2.122-1.414 1.414-6.364 6.364-1.415 1.414-.353 2.475-.06.412zm9.605-9.251l-6.364 6.364 1.414 1.414 6.364-6.364-1.414-1.414zm2.828 0l2.122-2.121-1.415-1.415-2.121 2.122 1.414 1.414z" clip-rule="evenodd"/>
    <defs>
        <linearGradient id="a" x1="9.778" x2="14.021" y1="9.778" y2="14.021" gradientUnits="userSpaceOnUse">
            <stop stop-color="#08F"/>
            <stop offset="1" stop-color="#0060B5"/>
        </linearGradient>
    </defs>
</svg>
